<svg xmlns="http://www.w3.org/2000/svg" version="1.1" width="200" height="200" viewBox="0 0 200 200">
  <rect width="100%" height="100%" x="0" y="0" fill="#15734e" rx="0"/>
  <path d="M72.28,83.63 c8.73,-12.24 27.23,-15.16 39.58,-6.83 c-2.07,3.05 -4,6.2 -6,9.3 c-6.04,-4.35 -14.77,-4.47 -20.76,0.03 c-7.17,4.87 -9.58,15.4 -4.84,22.76 c5.01,8.68 17.81,11.39 25.64,4.9 c6.69,-4.9 6.65,-13.85 8.88,-21.08 c2.68,-9.11 10.06,-16.91 19.3,-19.46 c8.32,-2.33 17.74,-1.22 24.93,3.73 c-2.03,3.07 -3.95,6.2 -5.92,9.3 c-4.28,-3.07 -9.95,-4.29 -15.06,-2.84 c-7.62,1.92 -13.18,9.66 -12.64,17.49 c0.18,8.7 7.79,16.55 16.59,16.54 c7.21,0.4 13.52,-4.98 15.64,-11.65 c-5.58,-0.07 -11.15,0.03 -16.72,-0.05 c1.89,-3.6 4.29,-6.89 6.44,-10.33 c7.3,0.03 14.61,-0.09 21.91,0.08 c1.38,10.08 -2.43,20.89 -10.68,27.06 c-12.05,9.63 -31.5,6.36 -40.07,-6.35 c-4.58,6.28 -11.65,10.8 -19.42,11.68 c-9.22,1.4 -18.87,-2.1 -25.19,-8.92 c-3.03,4.62 -8.22,7.85 -13.82,7.92 c-9.76,0.23 -19.55,0.34 -29.31,-0.04 c0.09,-17.87 0.06,-35.73 0.02,-53.6 c8.78,-0.03 17.56,-0.07 26.34,0.01 c6.46,0.13 13.02,4.07 15.16,10.35 zm-29.83,-0.26 c0.13,3.84 0.08,7.68 0.07,11.53 c4.52,-0.02 9.04,0.08 13.56,-0.02 c3.11,0.1 5.96,-2.79 5.7,-5.91 c0.11,-3.05 -2.69,-5.8 -5.72,-5.7 c-4.54,-0.08 -9.08,-0.09 -13.61,0.1 zm0.11,21.38 c-0.06,4.11 -0.05,8.21 0,12.32 c5.16,-0.04 10.32,0.06 15.47,-0.01 c3.07,0.17 6.2,-2.01 6.66,-5.12 c0.77,-3.47 -2.19,-6.94 -5.66,-7.08 c-5.48,-0.2 -10.98,0.04 -16.47,-0.11 z" fill="#fefefe"/>
</svg>